<svg width="40" height="40" viewBox="0 0 40 40" fill="none" xmlns="http://www.w3.org/2000/svg">
<g clip-path="url(#clip0_2166_1009)">
<path d="M39.9789 20.3736C39.9789 18.7349 39.8428 17.539 39.5483 16.2988H20.3984V23.6955H31.639C31.4125 25.5336 30.1887 28.3019 27.4691 30.162L27.431 30.4097L33.4858 34.9933L33.9053 35.0342C37.7579 31.5573 39.9789 26.4416 39.9789 20.3736Z" fill="#4285F4"/>
<path d="M20.3985 39.8624C25.9054 39.8624 30.5286 38.0906 33.9054 35.0346L27.4692 30.1624C25.7469 31.3361 23.4352 32.1555 20.3985 32.1555C15.0048 32.1555 10.427 28.6787 8.79518 23.873L8.55598 23.8929L2.26007 28.6543L2.17773 28.8779C5.53176 35.3888 12.4212 39.8624 20.3985 39.8624Z" fill="#34A853"/>
<path d="M8.79495 23.8727C8.36437 22.6325 8.11518 21.3037 8.11518 19.9307C8.11518 18.5576 8.36437 17.2289 8.7723 15.9887L8.76089 15.7246L2.38608 10.8867L2.17751 10.9837C0.795153 13.6855 0.00195312 16.7195 0.00195312 19.9307C0.00195312 23.1418 0.795153 26.1757 2.17751 28.8776L8.79495 23.8727Z" fill="#FBBC05"/>
<path d="M20.3985 7.70672C24.2284 7.70672 26.8119 9.32336 28.285 10.6744L34.0413 5.18214C30.5061 1.97099 25.9054 0 20.3985 0C12.4212 0 5.53176 4.47343 2.17773 10.9843L8.77252 15.9893C10.427 11.1837 15.0048 7.70672 20.3985 7.70672Z" fill="#EB4335"/>
</g>
<defs>
<clipPath id="clip0_2166_1009">
<rect width="40" height="40" fill="white"/>
</clipPath>
</defs>
</svg>
