<svg width="40" height="40" viewBox="0 0 40 40" fill="none" xmlns="http://www.w3.org/2000/svg">
<g clip-path="url(#clip0_2166_1024)">
<path d="M34.1707 5.81282C30.4105 2.06655 25.4105 0.00228568 20.0834 0C9.10597 0 0.17257 8.89125 0.168175 19.8199C0.166896 23.3132 1.0837 26.7233 2.8263 29.7291L0.000976562 40L10.5582 37.2439C13.467 38.8233 16.742 39.6555 20.0748 39.6568H20.0833H20.0834C31.059 39.6568 39.9937 30.764 39.9984 19.8359C40.0002 14.5394 37.9305 9.55935 34.1707 5.81282ZM20.0834 36.3092H20.0769C17.1062 36.3076 14.1931 35.5136 11.6521 34.0124L11.0474 33.6555L4.78248 35.2909L6.45512 29.2117L6.06113 28.5885C4.40406 25.9653 3.52927 22.9339 3.53052 19.8211C3.53416 10.7376 10.9593 3.34778 20.0896 3.34778C24.511 3.34961 28.6667 5.06544 31.792 8.17922C34.9172 11.293 36.6371 15.4323 36.6357 19.8345C36.6319 28.9183 29.2065 36.3092 20.0834 36.3092Z" fill="#E0E0E0"/>
<path d="M0.915039 38.8595L3.61131 29.0578C1.94788 26.1892 1.07312 22.9347 1.07417 19.6015C1.07853 9.17235 9.60393 0.6875 20.079 0.6875C25.163 0.689786 29.9347 2.65965 33.5224 6.23489C37.1108 9.81009 39.0858 14.5623 39.0838 19.6163C39.0794 30.0458 30.5535 38.5314 20.0797 38.5314C20.079 38.5314 20.0803 38.5314 20.0797 38.5314H20.0713C16.8907 38.5304 13.7655 37.7355 10.9899 36.2294L0.915039 38.8595Z" fill="url(#paint0_linear_2166_1024)"/>
<path fill-rule="evenodd" clip-rule="evenodd" d="M15.1621 11.4045C14.7937 10.589 14.4057 10.5726 14.0552 10.5584C13.7685 10.5461 13.4403 10.5469 13.1126 10.5469C12.7846 10.5469 12.2516 10.6696 11.8009 11.1596C11.35 11.6497 10.0791 12.8344 10.0791 15.2438C10.0791 17.6534 11.8419 19.9817 12.0877 20.3087C12.3336 20.6353 15.4906 25.7378 20.4903 27.7008C24.6455 29.3321 25.4911 29.0076 26.393 28.926C27.2949 28.8443 29.3032 27.7416 29.7132 26.5979C30.1231 25.4546 30.1231 24.4745 30.0002 24.2696C29.8772 24.0656 29.5492 23.9431 29.0572 23.6982C28.5653 23.4533 26.147 22.2684 25.6961 22.1051C25.2451 21.9419 24.9172 21.8602 24.5892 22.3506C24.2612 22.8403 23.3191 23.9431 23.0321 24.2696C22.7451 24.5969 22.4581 24.6377 21.9662 24.3928C21.4742 24.1472 19.89 23.6306 18.0106 21.9622C16.5483 20.6643 15.561 19.0613 15.2741 18.571C14.9871 18.0812 15.2433 17.8159 15.4901 17.5717C15.7109 17.3523 15.982 17.0001 16.228 16.7141C16.4735 16.4281 16.5554 16.224 16.7194 15.8975C16.8834 15.5705 16.8014 15.2845 16.6784 15.0396C16.5554 14.7947 15.5995 12.3729 15.1621 11.4045Z" fill="white"/>
<path d="M34.008 5.75002C30.2909 2.04675 25.3483 0.00622459 20.0824 0.00390625C9.23093 0.00390625 0.400095 8.79308 0.395733 19.5962C0.394453 23.0495 1.30073 26.4204 3.02332 29.3918L0.230469 39.5447L10.6666 36.8202C13.5419 38.3814 16.7793 39.2041 20.0739 39.2054H20.0823H20.0824C30.932 39.2054 39.7641 30.4147 39.7687 19.612C39.7705 14.3764 37.7246 9.45355 34.008 5.75002ZM20.0824 35.8963H20.076C17.1394 35.8948 14.2596 35.1098 11.7478 33.6259L11.15 33.2731L4.95707 34.8897L6.61049 28.8803L6.22103 28.2643C4.58298 25.6712 3.71823 22.6745 3.71951 19.5975C3.72308 10.6183 11.0629 3.31332 20.0885 3.31332C24.4592 3.31511 28.5671 5.01125 31.6566 8.08929C34.7459 11.1673 36.446 15.2591 36.4447 19.6108C36.4409 28.5903 29.1007 35.8963 20.0824 35.8963Z" fill="white"/>
</g>
<defs>
<linearGradient id="paint0_linear_2166_1024" x1="19.9994" y1="38.8595" x2="19.9994" y2="0.687564" gradientUnits="userSpaceOnUse">
<stop stop-color="#20B038"/>
<stop offset="1" stop-color="#60D66A"/>
</linearGradient>
<clipPath id="clip0_2166_1024">
<rect width="40" height="40" fill="white"/>
</clipPath>
</defs>
</svg>
